<svg xmlns="http://www.w3.org/2000/svg" width="45" height="28" fill="white" viewBox="0 0 24 24">
        <path d="M12 2a1 1 0 0 1 1 1v2a1 1 0 1 1-2 0V3a1 1 0 0 1 1-1zm6.364 2.636a1 1 0 0 1 0 1.414l-1.414 1.414a1 1 0 0 1-1.414-1.414l1.414-1.414a1 1 0 0 1 1.414 0zM21 11h-2a1 1 0 1 1 0-2h2a1 1 0 1 1 0 2zm-3.636 8.364-1.414-1.414a1 1 0 0 1 1.414-1.414l1.414 1.414a1 1 0 0 1-1.414 1.414zM13 21v-2a1 1 0 1 1 2 0v2a1 1 0 1 1-2 0zM4.636 19.364A1 1 0 0 1 6.05 17.95l1.414 1.414a1 1 0 0 1-1.414 1.414l-1.414-1.414zM3 13h2a1 1 0 1 1 0 2H3a1 1 0 1 1 0-2zm3.636-8.364L8.05 6.05A1 1 0 0 1 6.636 7.464L5.222 6.05a1 1 0 0 1 1.414-1.414z" />
    </svg>